<svg width="197" height="68" viewBox="0 0 197 68" fill="none" xmlns="http://www.w3.org/2000/svg">
<g clip-path="url(#clip0_213_429)">
<path d="M30.4633 33.0426H38.9352V45.0242C36.2919 45.8793 32.9542 46.3484 29.4847 46.3484C15.4236 46.3484 7.15942 34.2238 7.15942 22.3826C7.15942 10.7688 14.6346 2.62249 25.0633 2.62249C31.6625 2.62249 35.5024 4.87363 38.9377 8.0094V11.9185L45.379 5.43246C41.3048 2.65689 35.4052 0.019043 26.9728 0.019043C8.46139 0.019043 6.10352e-05 13.3543 6.10352e-05 24.3133C6.10352e-05 39.9124 11.2837 49.3094 25.4634 49.3094C32.3387 49.3094 38.4434 48.2526 45.495 46.2769V33.898C45.495 33.265 45.7712 32.8307 46.1841 32.4493L48.4093 30.2087H33.2988L30.4633 33.0426Z" fill="url(#paint0_linear_213_429)"/>
<path d="M68.4147 16.7599C57.7597 16.7599 51.1579 24.5996 51.1579 32.921C51.1579 40.1036 56.4764 48.6314 67.2521 48.6314C77.6178 48.6314 83.9776 40.7764 83.9776 32.3093C83.9776 24.4222 77.7624 16.7628 68.4147 16.7628V16.7599ZM66.6468 19.0455C74.159 19.0455 77.5044 28.9004 77.5044 35.9294C77.5044 46.3829 69.7164 46.5894 68.7853 46.5894C65.2214 46.5894 62.7305 44.4206 60.8659 41.5759C59.2247 38.9542 57.6203 34.0835 57.6203 29.3242C57.6203 24.5835 59.1613 22.2687 61.5866 20.5657C63.5698 19.2892 65.4268 19.0455 66.6443 19.0455H66.6468Z" fill="url(#paint1_linear_213_429)"/>
<path d="M138.065 16.7572C128.76 16.7572 123.725 22.6898 123.725 29.3136C123.725 34.3562 127.313 40.0451 134.714 40.0451H136.587C136.587 40.0451 136.077 41.2925 136.074 42.4976C136.074 44.2749 136.708 45.2731 138.054 46.8092C125.319 47.5905 120.201 52.763 120.201 58.3221C120.201 63.1902 124.83 67.9812 134.559 67.9812C146.077 67.9812 152.042 61.5425 152.042 55.2236C152.042 50.7689 149.838 48.327 144.256 44.116C142.615 42.8315 142.297 42.0134 142.297 41.052C142.297 39.6748 143.115 38.7635 143.415 38.4194C143.943 37.8579 144.859 37.217 145.201 36.9098C147.076 35.3101 149.725 32.9427 149.725 28.2176C149.725 24.9759 148.386 22.1871 145.335 19.5757H149.059L151.858 16.7578H138.065V16.7572ZM135.498 18.8654C137.187 18.8654 138.597 19.4666 140.085 20.714C141.737 22.2131 144.375 26.2413 144.375 31.2257C144.375 36.6047 140.225 38.0772 137.979 38.0772C136.879 38.0772 135.562 37.7674 134.446 36.9994C131.969 35.3814 129.509 31.0747 129.509 25.95C129.509 21.3258 132.245 18.8654 135.498 18.8654ZM139.183 48.8512C139.893 48.8512 140.404 48.9097 140.404 48.9097C140.404 48.9097 142.079 50.1147 143.25 51.015C145.975 53.184 147.673 54.842 147.673 57.7953C147.673 61.8554 143.933 65.0388 137.876 65.0388C131.227 65.0388 126.145 61.9215 126.145 56.8315C126.145 52.6149 129.628 48.986 139.183 48.8512Z" fill="url(#paint2_linear_213_429)"/>
<path d="M153.873 47.7017H166.648L168.594 45.7422L164.93 45.2813C163.944 45.1595 163.357 44.3014 163.357 43.4698V4.61434C163.357 3.84894 163.71 3.45696 163.967 3.20774L166.272 0.887695H155.377L152.542 3.74273H156.776V43.9913C156.776 44.5633 156.598 44.9526 156.214 45.3525L153.873 47.7017Z" fill="url(#paint3_linear_213_429)"/>
<path d="M183.957 16.7599C176.824 16.7599 169.246 22.2342 169.246 32.0627C169.246 40.1799 174.683 48.6314 184.841 48.6314C187.374 48.6314 189.459 48.3033 191.414 47.4001C193.51 46.4282 195.527 44.8496 197 42.866C194.22 44.2776 191.953 45.2046 188.941 45.2046C183.218 45.2046 177.699 41.0465 175.769 33.403L195.987 25.1743C194.82 20.9818 191.526 16.7599 183.96 16.7599H183.957ZM182.636 19.0084C186.464 19.0084 189.23 22.1786 189.23 24.6602C189.23 25.4627 188.731 25.8865 187.742 26.2785L175.314 31.3396C175.314 31.3396 174.978 29.7638 174.978 28.0609C174.978 20.918 180.106 19.0084 182.636 19.0084Z" fill="url(#paint4_linear_213_429)"/>
<path d="M104.569 16.7599C93.9145 16.7599 87.3127 24.5996 87.3127 32.921C87.3127 40.1036 92.6312 48.6314 103.407 48.6314C113.773 48.6314 120.132 40.7764 120.132 32.3093C120.132 24.4222 113.917 16.7628 104.569 16.7628V16.7599ZM102.802 19.0455C110.314 19.0455 113.659 28.9004 113.659 35.9294C113.659 46.3829 105.871 46.5894 104.94 46.5894C101.376 46.5894 98.8854 44.4206 97.0208 41.5759C95.3796 38.9542 93.7751 34.0835 93.7751 29.3242C93.7751 24.5835 95.3161 22.2687 97.7414 20.5657C99.7246 19.2892 101.582 19.0455 102.799 19.0455H102.802Z" fill="url(#paint5_linear_213_429)"/>
</g>
<defs>
<linearGradient id="paint0_linear_213_429" x1="24.0843" y1="-0.120484" x2="24.0843" y2="49.3068" gradientUnits="userSpaceOnUse">
<stop stop-color="#196EEF"/>
<stop offset="0.5" stop-color="#186DEE"/>
<stop offset="1" stop-color="#1065E7"/>
</linearGradient>
<linearGradient id="paint1_linear_213_429" x1="67.4484" y1="16.6844" x2="67.4484" y2="48.6448" gradientUnits="userSpaceOnUse">
<stop stop-color="#DE5744"/>
<stop offset="0.5" stop-color="#DB4632"/>
<stop offset="1" stop-color="#D13D29"/>
</linearGradient>
<linearGradient id="paint2_linear_213_429" x1="136.004" y1="16.6844" x2="136.004" y2="68.0007" gradientUnits="userSpaceOnUse">
<stop stop-color="#1A6FEF"/>
<stop offset="0.25" stop-color="#1E72EF"/>
<stop offset="0.5" stop-color="#166BEC"/>
<stop offset="0.75" stop-color="#1267E9"/>
<stop offset="1" stop-color="#1063E5" stop-opacity="0.87"/>
</linearGradient>
<linearGradient id="paint3_linear_213_429" x1="160.451" y1="0.777502" x2="160.451" y2="47.7468" gradientUnits="userSpaceOnUse">
<stop stop-color="#0AA561"/>
<stop offset="0.5" stop-color="#009B58"/>
<stop offset="1" stop-color="#00914B"/>
</linearGradient>
<linearGradient id="paint4_linear_213_429" x1="183.007" y1="16.6844" x2="183.007" y2="48.5568" gradientUnits="userSpaceOnUse">
<stop stop-color="#DE5644"/>
<stop offset="0.5" stop-color="#DA4531"/>
<stop offset="1" stop-color="#CE3A28"/>
</linearGradient>
<linearGradient id="paint5_linear_213_429" x1="103.604" y1="16.7538" x2="103.604" y2="48.5815" gradientUnits="userSpaceOnUse">
<stop stop-color="#FFC01A"/>
<stop offset="0.5" stop-color="#FFBA03"/>
<stop offset="1" stop-color="#FFB300"/>
</linearGradient>
<clipPath id="clip0_213_429">
<rect width="197" height="68" fill="white"/>
</clipPath>
</defs>
</svg>
