<svg width="235" height="41" viewBox="0 0 235 41" fill="none" xmlns="http://www.w3.org/2000/svg">
<rect y="20.421" width="13.2566" height="13.2566" rx="1.47296" transform="rotate(-45 0 20.421)" fill="#6A492B"/>
<rect x="11.0472" y="31.4683" width="13.2566" height="13.2566" rx="1.47296" transform="rotate(-45 11.0472 31.4683)" fill="#33424B"/>
<rect x="22.0944" y="20.421" width="13.2566" height="13.2566" rx="1.47296" transform="rotate(-45 22.0944 20.421)" fill="#66403E"/>
<rect x="33.1416" y="9.37384" width="13.2566" height="13.2566" rx="1.47296" transform="rotate(-45 33.1416 9.37384)" fill="#404D31"/>
<rect x="11.0472" y="9.37384" width="13.2566" height="13.2566" rx="1.47296" transform="rotate(-45 11.0472 9.37384)" fill="#4E3F3A"/>
<path d="M71.4594 24.2884H71.6255C71.6054 24.2481 71.5853 24.228 71.5651 24.228C71.5248 24.2381 71.4896 24.2582 71.4594 24.2884ZM73.1661 13.1269C73.2064 12.8047 73.3423 12.5378 73.5739 12.3264C74.0371 11.9035 74.6362 11.6316 75.3712 11.5108C75.5525 11.4806 75.8495 11.4504 76.2623 11.4202C76.2825 11.2792 76.2925 11.1785 76.2925 11.1181V11.0275C76.2825 10.9973 76.2774 10.9671 76.2774 10.9368C76.2774 10.8966 76.2825 10.8412 76.2925 10.7707C73.7753 10.8714 71.3939 11.0577 69.1485 11.3295C66.9031 11.6014 64.4564 11.9941 61.8082 12.5076C60.6301 12.85 58.8781 13.4189 56.5522 14.2143C55.7869 14.5164 55.1123 14.899 54.5283 15.3622C53.9443 15.8153 53.3301 16.5554 52.6856 17.5824C53.1488 19.3646 54.4477 20.6837 56.5824 21.5396C57.3275 21.8416 58.3293 22.1538 59.588 22.476C61.2192 22.8989 62.2412 23.1758 62.654 23.3067C65.2115 23.7799 68.2323 24.1626 71.7162 24.4546C71.696 24.4042 71.6859 24.369 71.6859 24.3488L71.6255 24.2884L71.8974 24.3186C72.8338 21.7913 74.1629 17.9701 75.8847 12.855C75.6431 12.855 75.2554 12.8852 74.7218 12.9456L73.9062 13.0362C73.735 13.0564 73.4883 13.0866 73.1661 13.1269ZM80.9898 12.6889H79.2377L78.3315 15.6341C78.1301 16.3188 77.813 17.3408 77.38 18.7001C77.3297 18.8612 76.9772 19.8681 76.3227 21.7208C75.92 22.8485 75.5676 23.8001 75.2655 24.5754C75.2454 24.5754 75.2353 24.5855 75.2353 24.6056C75.2353 24.6257 75.2252 24.6358 75.2051 24.6358H75.1749C75.1145 24.6962 75.0843 24.7566 75.0843 24.817C75.0843 24.8976 75.0893 24.9479 75.0994 24.9681C75.1094 24.9882 75.1245 24.9983 75.1447 24.9983C75.1648 24.9983 75.1849 24.9832 75.2051 24.953C75.2252 24.9228 75.2353 24.817 75.2353 24.6358L76.0509 24.6962V24.666C76.8866 24.6861 77.6468 24.7566 78.3315 24.8775C78.8652 24.9681 79.6707 25.0939 80.7481 25.255C83.789 25.255 86.6586 24.7919 89.3571 23.8655C92.3074 22.8485 94.7894 21.3634 96.8032 19.41C96.9845 19.1582 97.0751 18.826 97.0751 18.4131C97.0751 17.8996 96.919 17.5522 96.6069 17.371C93.2539 14.2496 88.0482 12.6889 80.9898 12.6889ZM75.9754 24.666C75.7941 24.6056 75.6431 24.5653 75.5223 24.5452C75.4014 24.5452 75.336 24.5552 75.3259 24.5754C75.3259 24.6358 75.5424 24.666 75.9754 24.666ZM74.1327 28.8648L73.6041 28.8044C73.6444 28.8245 73.6695 28.8447 73.6796 28.8648C73.6897 28.8849 73.7048 28.9101 73.7249 28.9403C73.302 28.9403 72.9949 29.0914 72.8036 29.3934C72.6123 29.6854 72.3958 29.9321 72.1542 30.1335L66.2336 33.6073C66.1731 33.5469 66.1429 33.4714 66.1429 33.3808C66.1429 33.2801 66.1933 33.129 66.294 32.9277C66.7672 31.961 67.7691 30.5262 69.2996 28.6231C64.3657 28.1801 60.2626 27.2538 56.9902 25.8441C52.7813 24.0317 50.6769 21.6302 50.6769 18.6397C50.6769 17.9348 50.7927 17.1495 51.0242 16.2835C52.2225 13.9072 54.3672 11.9891 57.4584 10.529C59.9857 9.33083 63.1272 8.46489 66.883 7.93123C69.6218 7.54861 72.8389 7.33212 76.5342 7.28178L75.4618 4.92562C75.4216 4.8652 75.4014 4.80479 75.4014 4.74437C75.4014 4.35168 76.1012 3.97913 77.5008 3.62671C78.0546 3.48574 78.8501 3.35485 79.8872 3.23402C80.8135 3.12326 81.6241 3.06788 82.3189 3.06788C83.1848 3.06788 83.8796 3.14339 84.4032 3.29443C84.8059 3.40519 85.0073 3.59147 85.0073 3.85326C85.0073 3.91368 84.9972 3.98416 84.9771 4.06471L81.0804 6.69274C81.0602 6.71288 80.9898 6.90922 80.8689 7.28178H81.0502C81.1106 7.30192 81.1559 7.31198 81.1861 7.31198H81.2465C81.2667 7.33212 81.2868 7.34219 81.3069 7.34219C87.9827 7.55364 93.2388 9.01869 97.0751 11.7373L98.661 13.5951L98.6307 13.7461C98.6106 13.8468 98.6005 13.9173 98.6005 13.9576C98.6005 14.0381 98.6106 14.1589 98.6307 14.32C98.6509 14.4711 98.661 14.5869 98.661 14.6674C98.661 15.0803 98.5149 15.2867 98.2229 15.2867C97.9309 15.2867 97.5282 15.0903 97.0147 14.6976C96.6924 14.456 96.2393 14.0985 95.6553 13.6253C94.6384 13.1822 93.42 12.7593 92.0003 12.3566C92.9669 12.9104 94.4017 13.7763 96.3048 14.9544C97.1204 15.4981 97.7195 16.1425 98.1021 16.8877C98.4948 17.6328 98.6912 18.3577 98.6912 19.0626C98.6912 20.7743 97.936 22.2494 96.4256 23.4879C95.7107 24.0719 94.9052 24.5855 94.009 25.0285C93.3848 25.3608 92.4181 25.8088 91.1092 26.3727C86.3364 28.0844 80.9646 28.9403 74.9936 28.9403H74.1025C74.1025 28.9101 74.1126 28.895 74.1327 28.895V28.8648ZM73.3473 28.8044L73.3171 28.7742V28.8044H73.3473ZM69.4506 28.6534C69.3701 28.6534 69.3298 28.6433 69.3298 28.6231L69.36 28.5929C69.36 28.5728 69.3701 28.5627 69.3902 28.5627C69.4103 28.5728 69.4305 28.603 69.4506 28.6534ZM69.4506 28.6534C69.5412 28.6332 69.6268 28.6181 69.7074 28.608C69.7879 28.598 69.8685 28.5829 69.949 28.5627L69.511 28.5325C69.5815 28.3916 69.6168 28.2758 69.6168 28.1851V28.1549C69.5664 28.1549 69.4708 28.2808 69.3298 28.5325V28.5929C69.3096 28.5929 69.2996 28.603 69.2996 28.6231C69.2996 28.7238 69.3197 28.7742 69.36 28.7742C69.3902 28.7641 69.4204 28.7238 69.4506 28.6534ZM69.36 28.5325H69.3298V28.5627H69.36V28.5325ZM74.1025 28.9403C74.032 29.0209 73.9666 29.0611 73.9062 29.0611C73.8055 29.041 73.7551 29.0108 73.7551 28.9705C73.7853 28.9504 73.9011 28.9403 74.1025 28.9403ZM76.0207 12.6889C75.9502 12.7493 75.9149 12.7946 75.9149 12.8248H75.9452H75.9754H76.1415C76.061 12.7946 76.0207 12.7493 76.0207 12.6889ZM76.3832 11.1181H76.4436C76.504 11.1181 76.5644 11.0778 76.6248 10.9973C76.6752 10.957 76.7003 10.9117 76.7003 10.8613C76.6903 10.8211 76.655 10.7908 76.5946 10.7707L76.2925 10.7405V10.7707C76.4134 10.7707 76.4738 10.8009 76.4738 10.8613C76.4536 10.9318 76.4234 11.0174 76.3832 11.1181ZM76.5342 7.40261L76.6701 7.31198C76.7507 7.31198 76.801 7.30192 76.8212 7.28178H76.5342V7.40261ZM118.522 29.5143C117.777 29.9472 117.233 30.1637 116.891 30.1637C116.659 30.1637 116.443 30.0932 116.242 29.9523C116.242 29.0561 115.678 27.7421 114.55 26.0102C113.422 24.2683 112.481 23.3973 111.726 23.3973C111.121 23.3973 110.336 23.9561 109.369 25.0738C108.222 26.5137 107.376 27.6062 106.832 28.3513C105.946 29.4992 105.05 30.0731 104.144 30.0731C103.429 29.8012 102.799 29.3431 102.256 28.6987C101.722 28.0442 101.455 27.3595 101.455 26.6446C101.677 26.705 101.918 26.7704 102.18 26.8409C102.442 26.9114 102.643 26.9819 102.784 27.0524L107.829 21.2073C108.373 20.8951 108.992 20.7391 109.687 20.7391C111.489 20.7391 113.332 21.8215 115.214 23.9863C116.815 25.829 117.918 27.6716 118.522 29.5143ZM133.611 22.7176C133.258 23.201 133.082 23.9008 133.082 24.817C133.082 24.8976 133.102 25.1241 133.142 25.4967C133.153 25.688 133.173 25.98 133.203 26.3727C133.283 27.5206 133.324 28.0039 133.324 27.8227C133.324 28.6685 133.072 29.2625 132.568 29.6049C132.166 29.8767 131.511 30.0127 130.605 30.0127C130.424 29.8717 130.318 29.7056 130.288 29.5143C130.248 29.3532 130.227 29.182 130.227 29.0007V28.6231C130.227 28.2305 130.137 27.9435 129.956 27.7622C127.69 29.3229 125.44 30.1033 123.204 30.1033C121.996 30.1033 120.873 29.8566 119.836 29.3632C119.695 29.0813 119.595 28.9 119.534 28.8195C119.413 28.6382 119.257 28.5023 119.066 28.4117C119.046 28.2808 119.005 28.019 118.945 27.6263C118.865 27.1833 118.824 26.7654 118.824 26.3727C118.824 24.5401 119.907 23.0751 122.072 21.9776C123.008 21.5043 123.995 21.162 125.032 20.9505C126.019 20.7491 127 20.6485 127.977 20.6485C128.491 20.6485 128.994 20.6787 129.487 20.7391C130.665 21.0311 131.617 21.3281 132.342 21.6302C132.805 21.892 133.228 22.2545 133.611 22.7176ZM130.288 23.7598C129.794 23.6188 129.251 23.5483 128.657 23.5483C126.663 23.5483 124.548 24.4999 122.313 26.4029C122.666 26.5439 123.058 26.6144 123.491 26.6144C123.844 26.6144 124.523 26.4885 125.53 26.2368L126.618 25.9649C126.9 25.8944 127.166 25.8441 127.418 25.8139C128.435 25.4413 129.029 25.2097 129.2 25.1191C129.925 24.7466 130.288 24.2934 130.288 23.7598ZM135.891 24.7566C136.546 24.3035 136.999 24.0367 137.251 23.9561C137.583 23.8554 138.056 23.8051 138.67 23.8051C139.073 23.8051 139.426 23.8152 139.728 23.8353L141.087 23.9259C142.597 24.0266 143.217 24.077 142.945 24.077C143.025 24.077 143.065 24.0468 143.065 23.9863V23.9259C143.065 23.8857 143.076 23.8454 143.096 23.8051C142.773 23.2815 142.446 22.9694 142.114 22.8687C141.792 22.768 141.359 22.7176 140.815 22.7176H139.999C138.952 22.7176 137.83 23.0147 136.631 23.6088C136.43 23.3872 136.244 23.1707 136.073 22.9593C135.891 22.7781 135.801 22.5515 135.801 22.2796C135.801 22.0783 135.881 21.8316 136.042 21.5396C136.667 21.2878 137.266 21.1016 137.84 20.9807C138.424 20.8599 139.023 20.7995 139.637 20.7995C140.714 20.7995 141.686 20.9958 142.552 21.3885C143.428 21.7812 144.168 22.3552 144.772 23.1103C144.833 23.2815 144.863 23.4275 144.863 23.5483C144.863 23.5987 144.853 23.6591 144.833 23.7296C144.762 23.9813 144.702 24.1777 144.651 24.3186C144.551 24.6006 144.269 24.8926 143.806 25.1946C142.325 25.3557 141.122 25.5168 140.196 25.6779C138.806 25.9095 137.578 26.0857 136.511 26.2066L136.239 26.4633C136.541 26.6546 136.828 26.7956 137.1 26.8862C137.613 27.138 138.409 27.294 139.486 27.3544C140.191 27.3947 140.84 27.4149 141.434 27.4149C142.159 27.4149 142.789 27.4652 143.322 27.5659C144.057 27.7169 144.425 27.9334 144.425 28.2153C144.425 28.3261 144.304 28.5225 144.062 28.8044C143.921 28.9655 143.685 29.1618 143.352 29.3934C142.688 29.8465 141.973 30.0731 141.208 30.0731C140.966 30.0731 140.845 30.0731 140.845 30.0731C139.788 30.0127 139.199 29.9825 139.078 29.9825C137.719 29.5092 137.009 29.2625 136.949 29.2424C136.052 28.8698 135.433 28.3462 135.091 27.6716C135.051 27.3192 135.02 27.0675 135 26.9164C134.96 26.5842 134.94 26.4029 134.94 26.3727C134.94 26.0002 135 25.7384 135.121 25.5873C135.242 25.4665 135.398 25.2601 135.589 24.9681L135.891 24.7566ZM167.684 25.4363C167.704 25.5974 167.725 25.7434 167.745 25.8743V26.2066C167.745 27.7169 167.201 28.6685 166.114 29.0611C165.006 29.7962 163.501 30.1637 161.598 30.1637C159.926 30.1637 158.511 29.8365 157.353 29.182C156.709 28.3563 156.387 27.3041 156.387 26.0253C156.387 24.9781 156.573 23.9561 156.946 22.9593C159.01 21.459 161.361 20.7089 163.999 20.7089C164.885 20.7089 165.771 20.7995 166.657 20.9807C166.657 21.2325 166.758 21.4338 166.959 21.5849C167.171 21.7258 167.277 21.8467 167.277 21.9474C167.297 22.0078 167.307 22.0682 167.307 22.1286C167.307 22.4307 167.206 22.7076 167.005 22.9593C166.743 23.2916 166.446 23.4577 166.114 23.4577C165.922 23.4577 165.64 23.3621 165.268 23.1707C164.905 22.9694 164.548 22.8687 164.195 22.8687C162.02 22.8687 160.007 23.795 158.154 25.6477C158.476 26.2015 159.262 26.6043 160.51 26.856C161.638 26.856 163.017 26.6597 164.649 26.267C165.061 26.1663 165.65 26.0153 166.416 25.8139C167.04 25.6226 167.463 25.4967 167.684 25.4363ZM181.262 20.9807L179.707 24.6056H179.586C179.264 24.6056 178.78 24.52 178.136 24.3488C177.33 24.1474 176.792 24.0468 176.52 24.0468C175.745 24.0468 175.357 24.4999 175.357 25.4061L174.768 29.62C174.516 29.9221 174.063 30.0731 173.409 30.0731C173.55 30.0731 173.393 30.063 172.94 30.0429C172.638 30.0328 172.185 30.0127 171.581 29.9825C171.37 29.9623 171.224 29.9422 171.143 29.9221C171.445 29.1467 171.747 28.3765 172.049 27.6112C172.412 26.6345 172.593 25.8491 172.593 25.255C172.593 23.7044 171.294 22.9291 168.696 22.9291C168.455 22.9291 168.304 22.9392 168.243 22.9593C168.243 23.1103 168.168 22.6572 168.017 21.6C167.996 21.5094 167.986 21.4389 167.986 21.3885V21.3281C168.007 21.2677 168.092 21.2022 168.243 21.1318H171.793C172.497 21.1318 173.263 21.0714 174.088 20.9505C174.904 20.87 176.127 20.7391 177.758 20.5578L179.027 20.4219H179.465C179.646 20.4219 179.853 20.432 180.084 20.4521C180.386 20.5125 180.603 20.5629 180.734 20.6031C180.945 20.6837 181.121 20.8096 181.262 20.9807ZM193.496 21.2979L195.445 23.1556C195.384 23.4779 195.354 23.785 195.354 24.077C195.354 24.1575 195.369 24.3488 195.399 24.6509C195.44 24.953 195.505 25.391 195.596 25.9649C195.616 26.1361 195.626 26.2368 195.626 26.267C195.626 26.559 195.616 26.7654 195.596 26.8862C195.555 27.0373 195.485 27.2235 195.384 27.4451C193.652 29.2575 191.271 30.1637 188.24 30.1637C186.7 30.1637 184.998 29.8365 183.135 29.182C181.997 28.7792 181.429 28.0593 181.429 27.0222C181.429 26.992 181.514 26.3928 181.685 25.2248C181.826 24.2683 181.897 23.7195 181.897 23.5785C181.897 23.3369 181.867 23.1003 181.806 22.8687C183.538 21.4087 185.804 20.6787 188.603 20.6787C190.123 20.6787 191.754 20.8851 193.496 21.2979ZM193.587 25.4363C192.409 25.1745 191.377 24.9882 190.491 24.8775C189.544 24.7566 188.381 24.6962 187.002 24.6962H185.552C185.069 24.6962 184.666 24.7264 184.344 24.7868C183.981 24.8573 183.704 25.0436 183.513 25.3457C183.493 25.4061 183.483 25.4665 183.483 25.5269C183.483 25.829 183.634 26.0656 183.936 26.2368C184.631 26.6395 185.703 26.8661 187.153 26.9164C187.767 26.9366 188.265 26.9466 188.648 26.9466C191.014 26.9466 192.661 26.4432 193.587 25.4363ZM209.597 20.9807L210.579 20.8901C210.639 21.756 210.669 22.6321 210.669 23.5181C210.669 24.6559 210.558 25.9045 210.337 27.2638C209.813 30.496 208.691 33.0082 206.969 34.8005C206.083 35.7168 204.99 36.1749 203.691 36.1749C202.986 36.1749 202.312 35.9383 201.667 35.4651C201.033 35.0019 200.716 34.4431 200.716 33.7886C200.716 33.4563 200.842 32.7867 201.093 31.7798H201.184C201.406 31.7798 202.055 31.951 203.132 32.2933C203.414 32.3638 203.827 32.4796 204.371 32.6407C204.804 32.7716 205.061 32.837 205.141 32.837C206.088 32.837 206.561 32.3386 206.561 31.3418V30.4507C206.561 29.8767 206.561 29.5898 206.561 29.5898C206.561 29.4891 206.511 28.9806 206.41 28.0643C205.806 28.5476 204.9 29.2575 203.691 30.1939C202.251 30.1939 200.953 29.4035 199.795 27.8227C199.321 27.1682 198.898 26.4432 198.526 25.6477C198.304 25.1644 197.942 24.4646 197.438 23.5483L196.17 22.2494C196.462 21.4238 197.267 21.0109 198.586 21.0109C198.828 21.0109 199.065 21.021 199.296 21.0411L199.976 21.1016C200.479 21.4439 201.25 22.4558 202.287 24.1374C202.71 24.9026 203.374 25.9851 204.28 27.3847C204.895 27.1531 205.413 26.7 205.836 26.0253C206.239 25.3809 206.44 24.7264 206.44 24.0619C206.44 23.3872 206.843 22.7428 207.648 22.1286C208.071 21.8769 208.721 21.4943 209.597 20.9807ZM227.238 25.9649L227.177 26.2972C227.167 26.4382 227.137 26.6798 227.087 27.0222C226.976 27.6968 226.84 28.311 226.679 28.8648C226.588 29.1669 226.518 29.3632 226.468 29.4538C226.196 29.625 225.773 29.8717 225.199 30.1939C225.098 30.2443 225.018 30.2694 224.957 30.2694C224.907 30.2694 224.861 30.2543 224.821 30.2241C224.781 30.204 224.761 30.1536 224.761 30.0731C224.761 29.9623 224.781 29.8415 224.821 29.7106L225.018 29.0611C225.038 28.9806 225.058 28.8849 225.078 28.7742C225.078 28.7742 225.098 28.598 225.138 28.2456C225.199 27.7522 225.269 27.2689 225.35 26.7956C225.37 26.6849 225.38 26.6043 225.38 26.554C225.38 25.8491 224.751 25.4967 223.492 25.4967C222.525 25.4967 221.156 25.693 219.384 26.0857L217.556 26.4935C217.083 26.5942 216.741 26.6446 216.529 26.6446H216.439C216.429 26.6546 216.192 27.3947 215.729 28.8648C215.467 29.6905 215.2 30.1033 214.928 30.1033C214.707 30.1033 214.334 29.8264 213.811 29.2726L214.128 25.8441C214.218 24.7365 214.299 23.8806 214.37 23.2765C214.42 22.8536 214.556 21.902 214.777 20.4219C214.989 19.0022 215.215 17.6328 215.457 16.3137C215.759 15.6995 216.046 15.2263 216.318 14.894C216.419 14.7631 216.514 14.6976 216.605 14.6976C216.887 14.6976 217.204 14.9997 217.556 15.6039C217.637 15.7348 217.783 16.0016 217.994 16.4043C218.075 16.5654 218.196 16.792 218.357 17.084L218.493 17.673L217.149 23.3671C217.149 23.5081 217.541 23.5785 218.327 23.5785C218.77 23.5785 219.429 23.5383 220.305 23.4577C222.007 23.3067 223.432 23.0701 224.58 22.7478C225.153 22.5867 225.536 22.4105 225.727 22.2192C225.989 21.9071 226.165 21.5043 226.256 21.0109C226.327 20.3766 226.468 19.4301 226.679 18.1715C226.76 17.7989 226.916 17.6126 227.147 17.6126C227.167 17.6126 227.434 17.5421 227.948 17.4012C228.058 17.371 228.225 17.3257 228.446 17.2652H228.627C228.688 17.2451 228.743 17.2451 228.793 17.2652C228.703 17.7486 228.567 18.5339 228.386 19.6214C228.366 19.7724 228.22 20.5478 227.948 21.9474C227.877 22.3401 227.817 22.6975 227.766 23.0197L227.706 23.2765L227.736 23.2463L227.706 23.4879C227.656 23.6692 227.58 24.0518 227.479 24.6358C227.459 24.7466 227.449 24.8372 227.449 24.9077C227.419 24.9882 227.349 25.3406 227.238 25.9649Z" fill="#2A2E3A"/>
</svg>
