<svg width="24" height="24" viewBox="0 0 24 24" fill="none" xmlns="http://www.w3.org/2000/svg">
<g clip-path="url(#clip0_58_151)">
<path fill-rule="evenodd" clip-rule="evenodd" d="M12 24C18.6274 24 24 18.6274 24 12C24 5.37258 18.6274 0 12 0C5.37258 0 0 5.37258 0 12C0 18.6274 5.37258 24 12 24Z" fill="#01E675"/>
<path fill-rule="evenodd" clip-rule="evenodd" d="M11.9977 4L12.0023 4.00013C16.4126 4.00013 20 7.58856 20 12.0001C20 16.4114 16.4126 20 12.0023 20C10.3755 20 8.8662 19.5157 7.60148 18.6785L4.52654 19.6613L5.52334 16.689C4.56422 15.372 4 13.7495 4 11.9999C4 7.58843 7.58742 4 11.9977 4ZM9.76428 8.06361C9.60916 7.69209 9.49159 7.67802 9.25659 7.66847C9.17658 7.66382 9.08741 7.65918 8.98855 7.65918C8.68282 7.65918 8.36315 7.74851 8.17035 7.94601C7.93534 8.18586 7.35228 8.74546 7.35228 9.89307C7.35228 11.0407 8.18919 12.1506 8.30198 12.3059C8.41955 12.4609 9.9336 14.8501 12.2844 15.8238C14.1228 16.5857 14.6683 16.5151 15.0867 16.4258C15.6979 16.2941 16.4643 15.8424 16.6571 15.297C16.8499 14.7514 16.8499 14.2857 16.7934 14.187C16.737 14.0882 16.5818 14.0319 16.3468 13.9142C16.1118 13.7966 14.9691 13.2322 14.7528 13.157C14.5412 13.0771 14.3391 13.1053 14.1793 13.3311C13.9536 13.6462 13.7327 13.9661 13.5539 14.1588C13.4129 14.3094 13.1824 14.3282 12.9897 14.2482C12.7311 14.1401 12.0071 13.8859 11.1137 13.0911C10.4225 12.4751 9.95231 11.7086 9.81603 11.4782C9.67962 11.2431 9.80197 11.1065 9.90998 10.9796C10.0276 10.8337 10.1403 10.7303 10.2579 10.5939C10.3755 10.4576 10.4413 10.387 10.5165 10.227C10.5965 10.0719 10.54 9.91192 10.4836 9.79431C10.4272 9.67671 9.95709 8.52911 9.76428 8.06361Z" fill="white"/>
</g>
<defs>
<clipPath id="clip0_58_151">
<rect width="24" height="24" fill="white"/>
</clipPath>
</defs>
</svg>
