<svg width="70" height="70" viewBox="0 0 70 70" fill="none" xmlns="http://www.w3.org/2000/svg">
<path d="M29 29C29 25.6 31.6 23 35 23C38.4 23 41 25.6 41 29C41 32.4 38.4 35 35 35C31.6 35 29 32.4 29 29ZM35 39C25.8 39 23 45.6 23 45.6V49H47V45.6C47 45.6 44.2 39 35 39Z" fill="white"/>
<path d="M48 33C50.7614 33 53 30.7614 53 28C53 25.2386 50.7614 23 48 23C45.2386 23 43 25.2386 43 28C43 30.7614 45.2386 33 48 33Z" fill="white"/>
<path d="M48 37C45.6 37 43.8 37.6 42.4 38.6C47 40.8 48.8 44.6 48.8 45V45.2H57V42.6C57 42.4 54.8 37 48 37Z" fill="white"/>
<path d="M48 33C50.7614 33 53 30.7614 53 28C53 25.2386 50.7614 23 48 23C45.2386 23 43 25.2386 43 28C43 30.7614 45.2386 33 48 33Z" fill="white"/>
<path d="M48 37C45.6 37 43.8 37.6 42.4 38.6C47 40.8 48.8 44.6 48.8 45V45.2H57V42.6C57 42.4 54.8 37 48 37Z" fill="white"/>
<path d="M22 33C24.7614 33 27 30.7614 27 28C27 25.2386 24.7614 23 22 23C19.2386 23 17 25.2386 17 28C17 30.7614 19.2386 33 22 33Z" fill="white"/>
<path d="M22 37C24.4 37 26.2 37.6 27.6 38.6C23 40.8 21.2 44.6 21.2 45V45.2H13V42.6C13 42.4 15.2 37 22 37Z" fill="white"/>
<circle cx="35" cy="35" r="34.5" stroke="white"/>
</svg>
