<svg width="73" height="12" viewBox="0 0 73 12" fill="none" xmlns="http://www.w3.org/2000/svg">
<g clip-path="url(#clip0_216_443)">
<path fill-rule="evenodd" clip-rule="evenodd" d="M6.5 9.644L10.517 12L9.451 7.56L13 4.573L8.326 4.187L6.5 0L4.673 4.187L0 4.573L3.549 7.56L2.483 12L6.5 9.644ZM21.5 9.644L25.517 12L24.451 7.56L28 4.573L23.326 4.187L21.5 0L19.674 4.187L15 4.573L18.549 7.56L17.483 12L21.5 9.644ZM36.5 9.644L40.517 12L39.451 7.56L43 4.573L38.327 4.187L36.5 0L34.673 4.187L30 4.573L33.549 7.56L32.483 12L36.5 9.644ZM51.5 9.644L55.517 12L54.451 7.56L58 4.573L53.327 4.187L51.5 0L49.673 4.187L45 4.573L48.549 7.56L47.483 12L51.5 9.644ZM66.5 9.644L70.517 12L69.451 7.56L73 4.573L68.326 4.187L66.5 0L64.674 4.187L60 4.573L63.549 7.56L62.483 12L66.5 9.644Z" fill="#FFCC00"/>
</g>
<defs>
<clipPath id="clip0_216_443">
<rect width="73" height="12" fill="white"/>
</clipPath>
</defs>
</svg>
