<svg width="24" height="24" viewBox="0 0 24 24" fill="none" xmlns="http://www.w3.org/2000/svg">
<g clip-path="url(#clip0_58_155)">
<path fill-rule="evenodd" clip-rule="evenodd" d="M12 24C18.6274 24 24 18.6274 24 12C24 5.37258 18.6274 0 12 0C5.37258 0 0 5.37258 0 12C0 18.6274 5.37258 24 12 24Z" fill="#7F4DA0"/>
<path fill-rule="evenodd" clip-rule="evenodd" d="M12 3.33332C16.7865 3.33332 20.6667 7.21352 20.6667 12C20.6667 16.7865 16.7865 20.6667 12 20.6667C7.21357 20.6667 3.33337 16.7865 3.33337 12C3.33337 7.21352 7.21357 3.33332 12 3.33332ZM12.5191 6.86359C13.1084 6.93713 13.5846 7.0791 14.1071 7.33396C14.621 7.58541 14.9499 7.82316 15.385 8.2559C15.7928 8.6647 16.0189 8.97431 16.2587 9.45494C16.5928 10.1255 16.7829 10.9225 16.8154 11.8C16.8275 12.0993 16.8189 12.166 16.7504 12.2515C16.6202 12.4175 16.3341 12.3901 16.2364 12.2037C16.2056 12.1421 16.197 12.0891 16.1868 11.8496C16.1696 11.4818 16.1439 11.2441 16.0925 10.9601C15.8904 9.84665 15.3559 8.9572 14.5028 8.31919C13.7919 7.78553 13.057 7.52553 12.0943 7.46909C11.7688 7.45028 11.7123 7.43831 11.6386 7.38186C11.5015 7.27409 11.4947 7.02096 11.6266 6.90294C11.7071 6.82937 11.7636 6.81911 12.0429 6.82767C12.1885 6.8328 12.4026 6.8499 12.5191 6.86359ZM8.60304 7.04832C8.66301 7.06884 8.75552 7.11673 8.80863 7.15094C9.13409 7.36647 10.0403 8.52444 10.3367 9.10259C10.5063 9.4327 10.5628 9.6773 10.5097 9.85861C10.4549 10.0536 10.3641 10.1562 9.95808 10.4829C9.79534 10.6146 9.64287 10.7498 9.6189 10.7857C9.55723 10.8746 9.50753 11.0491 9.50753 11.1723C9.50927 11.4579 9.69427 11.9762 9.93753 12.3747C10.1259 12.6843 10.4634 13.0811 10.7975 13.3856C11.1898 13.7448 11.5358 13.9894 11.9264 14.1827C12.4283 14.4324 12.735 14.4957 12.9594 14.3914C13.0159 14.3657 13.0758 14.3315 13.0947 14.3161C13.1118 14.3007 13.2437 14.1399 13.3876 13.962C13.6651 13.6131 13.7285 13.5567 13.9187 13.4917C14.1602 13.4096 14.4069 13.4318 14.6553 13.5584C14.8437 13.6559 15.2549 13.9107 15.5204 14.0954C15.8698 14.34 16.6167 14.949 16.7178 15.0704C16.896 15.2894 16.9268 15.5699 16.8069 15.8795C16.6801 16.2062 16.1868 16.8185 15.8424 17.0802C15.5307 17.3163 15.3097 17.4069 15.0185 17.4206C14.7786 17.4326 14.6793 17.4121 14.3726 17.2855C11.9675 16.2951 10.0472 14.8173 8.52252 12.7869C7.72597 11.7265 7.11953 10.6266 6.70496 9.48574C6.46343 8.82037 6.45145 8.5313 6.65014 8.19092C6.73581 8.04725 7.10069 7.69146 7.36621 7.49305C7.80819 7.16463 8.01203 7.04318 8.17478 7.00898C8.28612 6.98503 8.47969 7.00385 8.60304 7.04832ZM12.6373 8.10368C13.6771 8.2559 14.4823 8.73826 15.0099 9.52165C15.3063 9.96295 15.4913 10.4812 15.5547 11.0371C15.5769 11.2407 15.5769 11.6118 15.5529 11.6734C15.5307 11.7316 15.4587 11.8103 15.397 11.8427C15.3302 11.877 15.1881 11.8736 15.1093 11.8325C14.9773 11.7658 14.9379 11.6597 14.9379 11.3724C14.9379 10.9294 14.8232 10.4624 14.6245 10.0998C14.3983 9.68585 14.0694 9.34377 13.6686 9.106C13.3243 8.90075 12.8155 8.74852 12.3512 8.7109C12.1833 8.6972 12.0908 8.663 12.0275 8.58945C11.9298 8.47826 11.9195 8.32774 12.0018 8.20289C12.0908 8.06433 12.2279 8.0421 12.6373 8.10368ZM13.0022 9.39507C13.3396 9.46692 13.5983 9.5952 13.8193 9.80217C14.1037 10.0707 14.2596 10.3957 14.3281 10.8627C14.3743 11.1671 14.3555 11.2868 14.2476 11.3861C14.1465 11.4784 13.9598 11.4818 13.8467 11.3946C13.7645 11.333 13.7388 11.268 13.72 11.0919C13.6977 10.8575 13.6566 10.6933 13.5864 10.5411C13.4356 10.2178 13.1701 10.0502 12.7213 9.99545C12.5105 9.96978 12.4471 9.94584 12.3786 9.86546C12.2536 9.71664 12.3015 9.47547 12.4746 9.38652C12.5397 9.35402 12.5671 9.3506 12.711 9.35915C12.8 9.36428 12.932 9.37967 13.0022 9.39507Z" fill="white"/>
</g>
<defs>
<clipPath id="clip0_58_155">
<rect width="24" height="24" fill="white"/>
</clipPath>
</defs>
</svg>
