<svg width="128" height="55" viewBox="0 0 128 55" fill="none" xmlns="http://www.w3.org/2000/svg">
<path d="M54.5027 27.5002C54.5027 24.1252 53.8675 20.9061 52.7602 17.9203C52.4672 27.7483 42.545 35.3575 36.7197 40.3929H51.3009C53.3391 36.5481 54.5027 32.1618 54.5027 27.5002ZM43.9616 5.85985C39.345 2.24115 33.5565 0.0650635 27.2519 0.0650635C12.2012 0.0650635 0 12.3488 0 27.5002C0 42.6515 12.2012 54.9349 27.2519 54.9349C34.1439 54.9349 40.4193 52.3389 45.2183 48.0905H25.4889L25.4287 42.2574C37.3164 31.8532 44.6038 24.817 44.6038 18.0207C44.6038 15.4948 43.6481 12.3075 39.3476 12.3075C35.9422 12.3075 32.6571 14.2934 33.2542 22.5917H26.3254C24.5927 12.9703 29.7898 5.3318 39.705 5.3318C41.2422 5.3318 42.6642 5.51655 43.9616 5.85985Z" fill="#A3C626"/>
<path d="M79.7785 19.0272H86.2244C86.4447 14.0914 84.7926 6.26965 74.16 6.26965C66.3361 6.26965 60.6613 10.9852 60.6613 20.8022C60.6613 22.1335 60.716 29.0111 60.716 33.2818C60.716 43.9323 68.0444 46.2612 74.2148 46.2612C77.9061 46.2612 83.25 45.4288 85.7288 42.7112V25.7385H73.6083V31.8955H79.008V39.3836C74.9305 40.7699 67.4928 41.3249 67.4928 31.8955V20.8022C67.4928 14.2016 70.5234 11.9277 73.8833 11.9277C77.3548 11.9277 79.7785 13.7027 79.7785 19.0272ZM127.725 35.5C128 20.3034 110.702 25.3498 110.866 16.864C110.921 13.8695 112.849 11.9277 115.99 11.9277C119.351 11.9277 121.333 13.9246 121.278 19.1389H127.614C127.78 14.4234 126.678 6.38133 116.211 6.38133C109.709 6.38133 104.366 9.59893 104.255 16.7535C103.98 31.34 121.389 26.5705 121.114 35.3898C121.003 38.9949 118.413 40.603 115.494 40.603C112.079 40.603 109.324 38.6063 109.875 32.6161H103.483C102.767 40.548 106.238 46.2062 115.439 46.2062C123.207 46.2062 127.614 41.8788 127.725 35.5ZM98.6196 45.7057H92.1196V6.8802H98.6196V45.7057ZM98.6196 45.7057H92.1196V6.8802H98.6196V45.7057Z" fill="#434242"/>
</svg>
