<svg width="16" height="16" viewBox="0 0 16 16" fill="none" xmlns="http://www.w3.org/2000/svg">
  <path d="M15.975 12.0938L15.2484 15.2438C15.1464 15.6891 14.755 16.0006 14.2966 16.0006C6.4125 16 0 9.5875 0 1.70313C0 1.245 0.311531 0.853126 0.756875 0.751563L3.90687 0.0250008C4.36562 -0.0813117 4.83437 0.156813 5.025 0.591251L6.47875 3.98188C6.64869 4.38125 6.53406 4.84656 6.19812 5.12094L4.51562 6.47188C5.5775 8.635 7.33625 10.3938 9.5 11.4563L10.8775 9.775C11.149 9.43813 11.6178 9.32156 12.0172 9.49453L15.4078 10.948C15.8156 11.1625 16.0813 11.6375 15.975 12.0938Z" fill="#2A2E3A"></path>
</svg>