<svg width="100" height="71" viewBox="0 0 100 71" fill="none" xmlns="http://www.w3.org/2000/svg">
<g clip-path="url(#clip0_122_442)">
<path d="M97.9102 11.0626C96.76 6.73237 93.3716 3.32171 89.0689 2.16411C81.2707 0.0612801 50 0.0612793 50 0.0612793C50 0.0612793 18.7294 0.0612801 10.9307 2.16432C6.62829 3.32193 3.23981 6.73237 2.08981 11.0628C0.000243933 18.9117 0.000244141 35.2885 0.000244141 35.2885C0.000244141 35.2885 0.000243933 51.6654 2.08981 59.5141C3.23981 63.8445 6.62829 67.113 10.9307 68.2708C18.7294 70.3737 50 70.3737 50 70.3737C50 70.3737 81.2707 70.3737 89.0689 68.2706C93.3716 67.1128 96.76 63.8443 97.9102 59.5139C99.9998 51.6652 99.9998 35.2882 99.9998 35.2882C99.9998 35.2882 99.9998 18.9117 97.9102 11.0626Z" fill="#FF0000"/>
<path d="M39.7726 50.1572V20.4196L65.9087 35.2887L39.7726 50.1572Z" fill="white"/>
</g>
<defs>
<clipPath id="clip0_122_442">
<rect width="100" height="70.4348" fill="white"/>
</clipPath>
</defs>
</svg>
